####
#
# OBJ File Generated by Meshlab
#
####
# Object beast_cage_deformed.obj
#
# Vertices: 152
# Faces: 300
#
####
vn 4.154380 0.192206 1.589211
v 0.155230 -0.111626 -0.047495
vn 2.886295 1.784131 0.763437
v 0.156082 -0.041812 -0.082967
vn -1.647586 2.696669 2.861137
v -0.005258 -0.032954 -0.026527
vn 0.279397 2.623190 3.212542
v 0.050691 -0.079556 0.027044
vn -3.624931 1.788885 -2.002318
v -0.112809 -0.089788 -0.224923
vn -2.801469 2.472848 -1.294716
v -0.098542 -0.047064 -0.212384
vn 1.498897 1.855442 -2.953321
v 0.060289 -0.058271 -0.272730
vn 1.384811 -0.710600 -3.880579
v 0.041442 -0.138123 -0.289318
vn -4.553956 -0.135652 2.883538
v -0.070208 -0.123869 -0.092832
vn 3.488699 -2.862519 -1.669582
v 0.109162 -0.175091 -0.175312
vn -0.018387 -4.471985 -2.769996
v 0.053758 -0.216370 -0.102827
vn -3.507743 -0.775850 -0.727745
v -0.068562 -0.179047 -0.058878
vn 4.937653 -1.491514 1.172834
v 0.117096 -0.192989 -0.013655
vn -0.127834 2.726098 3.832977
v 0.035156 -0.136216 0.056634
vn -1.889489 0.386809 4.097390
v -0.106333 -0.180178 -0.112583
vn 2.108068 -3.616282 1.476530
v 0.014931 -0.231136 -0.168375
vn 0.849090 -2.043427 -3.372462
v -0.015730 -0.210508 -0.277834
vn -3.429617 1.747762 -1.804868
v -0.142437 -0.146296 -0.228662
vn 0.478883 0.821340 -5.261442
v -0.094047 -0.250201 -0.257324
vn -3.781430 1.199500 -1.234783
v -0.194429 -0.255730 -0.227200
vn -1.705539 -0.155424 3.317773
v -0.156454 -0.273444 -0.115952
vn 3.364272 -3.148910 3.077149
v -0.053296 -0.253015 -0.152353
vn -2.525440 0.103748 4.048957
v -0.158677 -0.302372 -0.126102
vn 3.137479 3.552854 2.475455
v -0.027125 -0.294612 -0.172887
vn 1.211656 4.762769 -2.896424
v -0.077529 -0.275880 -0.272067
vn -4.064881 1.494695 -1.605269
v -0.195310 -0.283322 -0.239872
vn 1.273774 1.908864 -2.661213
v -0.047178 -0.295097 -0.306737
vn -3.072431 0.176773 -1.624894
v -0.202503 -0.318099 -0.263031
vn -1.462836 -0.436370 2.978670
v -0.158048 -0.329311 -0.117326
vn 2.535904 1.029962 1.439320
v 0.009216 -0.315007 -0.173294
vn -0.469583 0.215778 5.269344
v -0.101388 -0.492349 -0.198457
vn 3.969866 -0.043640 1.781353
v 0.019247 -0.503751 -0.234090
vn 2.369825 1.004231 -4.066951
v -0.014342 -0.494033 -0.322330
vn -2.833590 1.627537 -4.317687
v -0.124395 -0.480736 -0.296232
vn 1.026721 -1.101261 -1.671136
v -0.003272 -0.571669 -0.340296
vn -1.078673 -2.052547 -2.470172
v -0.129711 -0.569787 -0.319384
vn 2.054036 -1.580101 0.808348
v 0.023684 -0.571576 -0.244871
vn 0.298672 -2.901208 2.937293
v -0.102352 -0.567452 -0.196552
vn -1.199749 2.667394 2.340527
v -0.217094 -0.496811 -0.178924
vn -1.208267 -0.664541 1.805842
v -0.228836 -0.530976 -0.166949
vn -2.159422 -0.865356 -0.821562
v -0.252072 -0.535944 -0.254636
vn -2.508455 2.934816 -1.169924
v -0.234779 -0.495208 -0.248896
vn 0.486029 -0.275213 2.549617
v 0.049562 -0.234738 0.121383
vn 4.471217 -2.389978 0.026700
v 0.099226 -0.243807 0.006994
vn -3.165748 0.207800 1.085558
v -0.066848 -0.220350 0.054662
vn -1.659441 -2.968318 -4.147264
v 0.002080 -0.242382 -0.038385
vn 1.826111 1.243864 -3.251002
v 0.071200 -0.324387 -0.084440
vn 2.169951 0.739263 1.018119
v 0.132464 -0.302850 0.074465
vn 4.982778 0.797626 -0.322138
v 0.093384 -0.490582 0.004828
vn 2.043938 0.531078 -4.995678
v 0.031516 -0.500566 -0.087640
vn -1.082756 0.510062 2.341672
v -0.034889 -0.302328 0.129076
vn -3.918336 0.823377 3.331402
v -0.019620 -0.488810 0.043727
vn -2.590710 1.130351 -1.577042
v -0.075605 -0.316188 -0.057700
vn -3.994180 0.191621 -2.362458
v -0.050382 -0.499420 -0.068572
vn -2.103665 -1.467506 -1.273009
v -0.055319 -0.566757 -0.074385
vn -2.724911 -2.246103 0.462301
v -0.045096 -0.580072 0.018967
vn 0.682568 -1.258969 -2.485444
v 0.025507 -0.561293 -0.107384
vn 2.817667 -2.555927 -1.552238
v 0.094606 -0.573488 -0.007920
vn 2.108609 0.703764 1.361901
v 0.140473 -0.540550 0.164771
vn 2.252084 -2.861326 0.988833
v 0.126612 -0.584049 0.147290
vn -1.523782 -2.048210 2.232607
v 0.027204 -0.573826 0.186401
vn -0.658591 1.031947 2.219625
v 0.036183 -0.529536 0.202518
vn -3.249837 -2.148778 1.593479
v -0.094799 0.011013 -0.075718
vn -2.477024 -1.376622 -1.960880
v -0.105512 0.016428 -0.219407
vn 2.499006 -0.838065 -1.673576
v 0.108774 0.021028 -0.215737
vn 2.149783 -1.700575 2.052706
v 0.110682 0.015176 -0.044445
vn 1.322522 -1.303162 -4.680349
v 0.068581 0.092753 -0.253885
vn 2.920148 -0.582965 0.984128
v 0.150561 0.060879 -0.081337
vn 1.459776 -2.755177 3.643408
v -0.075393 0.082352 0.015639
vn -4.309204 -1.761839 -2.562602
v -0.142935 0.100616 -0.138733
vn 1.721246 1.881314 -3.155598
v 0.097341 0.219876 -0.248736
vn 3.109044 2.144131 3.482063
v 0.094245 0.215664 -0.064842
vn 0.374893 2.656670 2.899331
v 0.156820 0.202423 -0.042424
vn 3.045322 2.845459 -1.997347
v 0.209610 0.188125 -0.139646
vn -2.694753 -1.162474 -0.280622
v 0.111866 0.087432 -0.061253
vn 2.272859 -2.931234 -3.839499
v 0.171535 0.090537 -0.164273
vn 0.865252 -2.414880 -1.808859
v 0.232403 0.035158 -0.125483
vn -3.643212 -2.102540 1.902737
v 0.146935 0.072969 -0.021226
vn 4.105301 0.500866 -1.619186
v 0.293064 0.108171 -0.076705
vn 2.224684 4.879317 1.535498
v 0.223554 0.173076 -0.060091
vn 2.288097 4.604593 -0.087068
v 0.265360 0.153215 0.008602
vn 4.406195 -1.656809 -0.137208
v 0.299367 0.082164 0.017421
vn -4.527931 1.668395 1.161520
v 0.174917 0.115295 0.036472
vn -1.211021 -4.255370 1.215927
v 0.209815 0.038555 0.036269
vn -3.883387 -3.027018 1.957062
v 0.207570 0.084376 0.106827
vn -3.806802 2.609339 -0.164882
v 0.207965 0.163712 0.101494
vn 2.651475 -3.489364 1.134887
v 0.282004 0.067691 0.103322
vn 4.940595 1.558543 -1.065631
v 0.293082 0.139792 0.089589
vn 5.217986 1.159836 1.014734
v 0.293370 0.162163 0.159382
vn 2.694494 -3.392275 1.194143
v 0.280359 0.085566 0.161445
vn -3.124628 -2.212262 0.992541
v 0.214179 0.095948 0.178410
vn -3.326293 2.517165 3.169697
v 0.251875 0.178707 0.148899
vn -1.214084 -0.482651 1.418463
v 0.211445 0.129067 0.278273
vn -0.676256 1.525317 0.765381
v 0.234716 0.216554 0.255742
vn 1.910245 -1.889217 2.489779
v 0.264679 0.119192 0.262949
vn 2.266359 1.932083 0.991763
v 0.280775 0.201274 0.242781
vn 1.371630 3.668543 -3.043865
v 0.037263 0.287528 -0.195770
vn 5.628021 -1.412602 0.068046
v 0.093506 0.306257 -0.041825
vn -4.005833 2.440242 -1.376805
v -0.162954 0.233816 -0.110571
vn -1.694426 0.942422 5.255453
v -0.072720 0.245152 -0.024286
vn -3.238161 -1.486194 4.497626
v -0.032118 0.309214 0.022739
vn -3.238322 3.541718 -2.227816
v -0.104805 0.288227 -0.141891
vn 1.382625 -0.971712 5.710563
v 0.026808 0.066649 -0.020694
vn -1.972533 0.298425 -5.664773
v -0.034036 0.089470 -0.237190
vn -2.565082 1.148782 -4.497355
v -0.063192 0.206096 -0.227371
vn 1.731897 -1.817535 5.157626
v 0.023700 0.227988 -0.024279
vn -3.701752 3.223630 -0.741439
v -0.232331 0.171252 -0.003268
vn 0.951071 2.590123 3.572205
v -0.159771 0.165885 0.081547
vn -0.103256 -1.585959 1.427531
v -0.151138 0.055569 0.081808
vn -1.815936 -2.574747 -3.623798
v -0.233979 0.064092 -0.018969
vn 1.069358 0.176043 0.005611
v -0.164530 0.053233 0.034746
vn -1.555879 -1.830564 -0.974611
v -0.267494 0.034232 0.007141
vn -2.443672 1.009247 0.979504
v -0.291441 0.130264 0.081799
vn 0.315430 2.738231 4.660932
v -0.188627 0.151120 0.090881
vn -3.550414 -0.965453 -0.623731
v -0.262503 0.024981 0.138102
vn -1.921073 2.579432 2.086728
v -0.226379 0.068981 0.202940
vn 2.839566 2.899791 -1.453087
v -0.130606 0.058232 0.170518
vn 1.218010 -1.667055 -3.207708
v -0.174185 0.003043 0.100829
vn 4.377460 -2.380060 -1.337412
v -0.115255 0.000730 0.210986
vn 1.828189 -2.189217 -3.048483
v -0.146729 -0.044757 0.148370
vn -3.760652 -2.213236 -0.005251
v -0.234846 -0.028219 0.184245
vn -2.327340 1.443012 4.553985
v -0.190134 0.010670 0.244944
vn -1.776781 -2.499960 0.608681
v -0.184872 -0.115245 0.240546
vn -0.461512 0.121510 2.817747
v -0.148445 -0.054059 0.306425
vn 1.781684 -0.173441 1.478583
v -0.103897 -0.060752 0.293627
vn 1.143092 -2.361000 -0.609669
v -0.133465 -0.122693 0.219674
vn 0.694660 -1.421167 2.302484
v 0.047144 0.267224 0.055746
vn 1.508061 1.595249 4.270778
v 0.046234 0.337747 0.045824
vn -2.585263 1.005339 3.211065
v -0.041944 0.353489 0.029291
vn 4.377799 0.858578 0.693143
v 0.103613 0.342625 -0.026991
vn -3.870706 2.745961 -0.917044
v -0.083324 0.332554 -0.093575
vn 2.955159 2.447137 -3.142151
v 0.056752 0.322551 -0.139822
vn 2.698483 3.392059 -0.671354
v 0.071660 0.397803 -0.051713
vn 0.355411 3.948529 1.063967
v 0.022075 0.418035 -0.016034
vn -2.801333 3.961330 1.496796
v -0.030498 0.394326 -0.006873
vn -1.330545 3.786150 -3.144837
v -0.015203 0.382674 -0.096832
vn 1.938301 1.985588 1.988388
v 0.278381 0.240823 0.150102
vn -0.933174 1.874887 1.929861
v 0.251121 0.246317 0.152966
vn -1.354987 2.275202 -1.461671
v 0.242879 0.247356 0.107077
vn 1.940071 1.950472 -1.901295
v 0.281151 0.239028 0.104071
vn 1.674446 -1.003616 0.184809
v -0.082376 0.005317 0.225245
vn 1.146103 -0.486855 3.090341
v -0.108248 0.017719 0.250742
vn 0.933230 3.470922 2.942437
v -0.122983 0.048836 0.236384
vn 2.804778 0.972933 -0.970460
v -0.088092 0.033645 0.208588
vn -1.862772 2.885105 -3.433891
v -0.026603 -0.279273 -0.046277
vn -2.724313 0.264716 1.667684
v -0.051883 -0.270037 0.088542
vn 2.936863 1.084678 -1.827189
v 0.083850 -0.285981 -0.041382
vn 1.698734 0.431620 2.278141
v 0.079954 -0.268525 0.097780
vn 4.669590 2.039773 -2.838864
v 0.108185 -0.050041 -0.177848
vn 0.293707 -1.505815 -4.652272
v 0.002869 0.020057 -0.246413
vn -4.965950 2.418174 2.355812
v -0.058007 -0.037944 -0.108764
vn -0.788403 -3.014383 4.275311
v -0.000783 0.005896 -0.039241
# 152 vertices, 0 vertices normals

f 5//5 9//9 6//6
f 9//9 4//4 3//3
f 1//1 10//10 2//2
f 10//10 8//8 7//7
f 68//68 103//103 66//66
f 103//103 69//69 63//63
f 70//70 104//104 64//64
f 104//104 67//67 65//65
f 100//100 106//106 101//101
f 106//106 72//72 98//98
f 105//105 102//102 97//97
f 71//71 105//105 97//97
f 105//105 99//99 102//102
f 98//98 127//127 106//106
f 127//127 101//101 106//106
f 136//136 132//132 131//131
f 131//131 129//129 135//135
f 131//131 135//135 136//136
f 130//130 132//132 133//133
f 132//132 136//136 133//133
f 134//134 133//133 136//136
f 136//136 135//135 134//134
f 7//7 149//149 10//10
f 149//149 2//2 10//10
f 65//65 150//150 104//104
f 150//150 64//64 104//104
f 3//3 151//151 9//9
f 151//151 6//6 9//9
f 63//63 152//152 103//103
f 152//152 66//66 103//103
f 1//1 2//2 3//3
f 1//1 3//3 4//4
f 5//5 6//6 7//7
f 5//5 7//7 8//8
f 9//9 10//10 11//11
f 9//9 11//11 12//12
f 10//10 1//1 13//13
f 10//10 13//13 11//11
f 4//4 9//9 12//12
f 4//4 12//12 14//14
f 1//1 4//4 14//14
f 1//1 14//14 13//13
f 10//10 9//9 15//15
f 10//10 15//15 16//16
f 8//8 10//10 16//16
f 8//8 16//16 17//17
f 9//9 5//5 18//18
f 9//9 18//18 15//15
f 5//5 8//8 17//17
f 5//5 17//17 18//18
f 18//18 17//17 19//19
f 18//18 19//19 20//20
f 15//15 18//18 20//20
f 15//15 20//20 21//21
f 17//17 16//16 22//22
f 17//17 22//22 19//19
f 16//16 15//15 21//21
f 16//16 21//21 22//22
f 22//22 21//21 23//23
f 22//22 23//23 24//24
f 19//19 22//22 24//24
f 19//19 24//24 25//25
f 21//21 20//20 26//26
f 21//21 26//26 23//23
f 20//20 19//19 25//25
f 20//20 25//25 26//26
f 26//26 25//25 27//27
f 26//26 27//27 28//28
f 23//23 26//26 28//28
f 23//23 28//28 29//29
f 25//25 24//24 30//30
f 25//25 30//30 27//27
f 24//24 23//23 29//29
f 24//24 29//29 30//30
f 30//30 29//29 31//31
f 30//30 31//31 32//32
f 27//27 30//30 32//32
f 27//27 32//32 33//33
f 29//29 28//28 34//34
f 29//29 34//34 31//31
f 28//28 27//27 33//33
f 28//28 33//33 34//34
f 34//34 33//33 35//35
f 34//34 35//35 36//36
f 33//33 32//32 37//37
f 33//33 37//37 35//35
f 32//32 31//31 38//38
f 32//32 38//38 37//37
f 38//38 36//36 35//35
f 38//38 35//35 37//37
f 38//38 31//31 39//39
f 38//38 39//39 40//40
f 36//36 38//38 40//40
f 36//36 40//40 41//41
f 34//34 36//36 41//41
f 34//34 41//41 42//42
f 31//31 34//34 42//42
f 31//31 42//42 39//39
f 39//39 42//42 41//41
f 39//39 41//41 40//40
f 13//13 14//14 43//43
f 13//13 43//43 44//44
f 14//14 12//12 45//45
f 14//14 45//45 43//43
f 11//11 13//13 44//44
f 11//11 44//44 46//46
f 12//12 11//11 46//46
f 12//12 46//46 45//45
f 47//47 48//48 49//49
f 47//47 49//49 50//50
f 48//48 51//51 52//52
f 48//48 52//52 49//49
f 53//53 47//47 50//50
f 53//53 50//50 54//54
f 51//51 53//53 54//54
f 51//51 54//54 52//52
f 52//52 54//54 55//55
f 52//52 55//55 56//56
f 54//54 50//50 57//57
f 54//54 57//57 55//55
f 50//50 49//49 58//58
f 50//50 58//58 57//57
f 58//58 56//56 55//55
f 58//58 55//55 57//57
f 58//58 49//49 59//59
f 58//58 59//59 60//60
f 56//56 58//58 60//60
f 56//56 60//60 61//61
f 52//52 56//56 61//61
f 52//52 61//61 62//62
f 49//49 52//52 62//62
f 49//49 62//62 59//59
f 59//59 62//62 61//61
f 59//59 61//61 60//60
f 7//7 6//6 63//63
f 7//7 63//63 64//64
f 3//3 2//2 65//65
f 3//3 65//65 66//66
f 66//66 65//65 67//67
f 66//66 67//67 68//68
f 64//64 63//63 69//69
f 64//64 69//69 70//70
f 71//71 72//72 73//73
f 71//71 73//73 74//74
f 72//72 68//68 75//75
f 72//72 75//75 73//73
f 67//67 71//71 74//74
f 67//67 74//74 76//76
f 68//68 67//67 76//76
f 68//68 76//76 75//75
f 75//75 76//76 77//77
f 75//75 77//77 78//78
f 76//76 74//74 79//79
f 76//76 79//79 77//77
f 73//73 75//75 78//78
f 73//73 78//78 80//80
f 74//74 73//73 80//80
f 74//74 80//80 79//79
f 79//79 80//80 81//81
f 79//79 81//81 82//82
f 80//80 78//78 83//83
f 80//80 83//83 81//81
f 77//77 79//79 82//82
f 77//77 82//82 84//84
f 78//78 77//77 84//84
f 78//78 84//84 83//83
f 83//83 84//84 85//85
f 83//83 85//85 86//86
f 84//84 82//82 87//87
f 84//84 87//87 85//85
f 81//81 83//83 86//86
f 81//81 86//86 88//88
f 82//82 81//81 88//88
f 82//82 88//88 87//87
f 87//87 88//88 89//89
f 87//87 89//89 90//90
f 85//85 87//87 90//90
f 85//85 90//90 91//91
f 86//86 85//85 91//91
f 86//86 91//91 92//92
f 92//92 91//91 93//93
f 92//92 93//93 94//94
f 91//91 90//90 95//95
f 91//91 95//95 93//93
f 89//89 92//92 94//94
f 89//89 94//94 96//96
f 90//90 89//89 96//96
f 90//90 96//96 95//95
f 94//94 93//93 95//95
f 94//94 95//95 96//96
f 72//72 71//71 97//97
f 72//72 97//97 98//98
f 99//99 100//100 101//101
f 99//99 101//101 102//102
f 67//67 104//104 105//105
f 67//67 105//105 71//71
f 104//104 70//70 99//99
f 104//104 99//99 105//105
f 69//69 103//103 106//106
f 69//69 106//106 100//100
f 103//103 68//68 72//72
f 103//103 72//72 106//106
f 100//100 99//99 107//107
f 100//100 107//107 108//108
f 69//69 100//100 108//108
f 69//69 108//108 109//109
f 99//99 70//70 110//110
f 99//99 110//110 107//107
f 70//70 69//69 109//109
f 70//70 109//109 110//110
f 110//110 109//109 111//111
f 110//110 111//111 112//112
f 107//107 110//110 112//112
f 107//107 112//112 113//113
f 109//109 108//108 114//114
f 109//109 114//114 111//111
f 108//108 107//107 113//113
f 108//108 113//113 114//114
f 114//114 113//113 115//115
f 114//114 115//115 116//116
f 111//111 114//114 116//116
f 111//111 116//116 117//117
f 113//113 112//112 118//118
f 113//113 118//118 115//115
f 112//112 111//111 117//117
f 112//112 117//117 118//118
f 118//118 117//117 119//119
f 118//118 119//119 120//120
f 115//115 118//118 120//120
f 115//115 120//120 121//121
f 116//116 115//115 121//121
f 116//116 121//121 122//122
f 122//122 121//121 123//123
f 122//122 123//123 124//124
f 119//119 122//122 124//124
f 119//119 124//124 125//125
f 121//121 120//120 126//126
f 121//121 126//126 123//123
f 120//120 119//119 125//125
f 120//120 125//125 126//126
f 126//126 125//125 124//124
f 126//126 124//124 123//123
f 101//101 127//127 128//128
f 101//101 128//128 129//129
f 127//127 98//98 130//130
f 127//127 130//130 128//128
f 97//97 102//102 131//131
f 97//97 131//131 132//132
f 102//102 101//101 129//129
f 102//102 129//129 131//131
f 98//98 97//97 132//132
f 98//98 132//132 130//130
f 128//128 130//130 133//133
f 128//128 133//133 134//134
f 129//129 128//128 134//134
f 129//129 134//134 135//135
f 92//92 89//89 137//137
f 92//92 137//137 138//138
f 86//86 92//92 138//138
f 86//86 138//138 139//139
f 89//89 88//88 140//140
f 89//89 140//140 137//137
f 88//88 86//86 139//139
f 88//88 139//139 140//140
f 140//140 139//139 138//138
f 140//140 138//138 137//137
f 122//122 119//119 141//141
f 122//122 141//141 142//142
f 116//116 122//122 142//142
f 116//116 142//142 143//143
f 119//119 117//117 144//144
f 119//119 144//144 141//141
f 117//117 116//116 143//143
f 117//117 143//143 144//144
f 144//144 143//143 142//142
f 144//144 142//142 141//141
f 46//46 145//145 146//146
f 46//46 146//146 45//45
f 145//145 53//53 51//51
f 145//145 51//51 146//146
f 44//44 147//147 145//145
f 44//44 145//145 46//46
f 147//147 47//47 53//53
f 147//147 53//53 145//145
f 45//45 146//146 148//148
f 45//45 148//148 43//43
f 146//146 51//51 48//48
f 146//146 48//48 148//148
f 43//43 148//148 147//147
f 43//43 147//147 44//44
f 148//148 48//48 47//47
f 148//148 47//47 147//147
f 2//2 149//149 150//150
f 2//2 150//150 65//65
f 149//149 7//7 64//64
f 149//149 64//64 150//150
f 6//6 151//151 152//152
f 6//6 152//152 63//63
f 151//151 3//3 66//66
f 151//151 66//66 152//152
# 300 faces, 0 coords texture

# End of File
