####
#
# OBJ File Generated by Meshlab
#
####
# Object bench_cages_triangulated.obj
#
# Vertices: 24
# Faces: 44
#
####
vn -1.503722 -1.466503 1.566340
v -1.005179 -0.224254 0.102890
vn -1.790675 1.656636 1.807400
v -1.005179 0.022492 0.086471
vn -1.720267 -1.803732 -1.554419
v -1.005179 -0.224191 0.002920
vn -4.391342 -1.780499 -1.822595
v -1.005179 -0.070846 -0.020074
vn 1.503722 -1.466503 1.566340
v 1.010668 -0.224254 0.102890
vn 1.790675 1.656636 1.807400
v 1.010668 0.022492 0.086471
vn 1.720267 -1.803732 -1.554420
v 1.010668 -0.224191 0.002920
vn 4.391343 -1.780499 -1.822595
v 1.010668 -0.070846 -0.020074
vn -4.330724 1.907742 1.770134
v -1.005179 0.067511 -0.204631
vn -4.909885 -1.507841 1.301129
v -1.005179 -0.024617 -0.285867
vn 4.909885 -1.507841 1.301128
v 1.010668 -0.024617 -0.285867
vn 4.330724 1.907742 1.770133
v 1.010668 0.067511 -0.204631
vn -4.002450 0.633716 -2.783818
v -1.005179 0.034814 -0.304230
vn -2.612197 1.151564 -2.804996
v -1.005179 -0.016929 -0.343914
vn 2.612197 1.151563 -2.804995
v 1.010668 -0.016929 -0.343914
vn 4.002451 0.633717 -2.783820
v 1.010668 0.034814 -0.304230
vn -1.544305 -1.531073 1.568408
v -1.005179 -0.224255 -0.280817
vn 1.544305 -1.531073 1.568408
v 1.010668 -0.224255 -0.280817
vn -1.447135 -1.375172 -1.560454
v -1.005179 -0.224148 -0.369923
vn 1.447135 -1.375172 -1.560454
v 1.010668 -0.224148 -0.369923
vn 1.622399 1.901756 1.254058
v 1.010668 0.302252 -0.259156
vn -1.622399 1.901757 1.254057
v -1.005179 0.302252 -0.259156
vn 1.540823 1.224135 -1.813398
v 1.010668 0.284853 -0.356636
vn -1.540823 1.224134 -1.813398
v -1.005179 0.284853 -0.356636
# 24 vertices, 0 vertices normals

f 2//2 4//4 3//3
f 2//2 3//3 1//1
f 4//4 8//8 7//7
f 4//4 7//7 3//3
f 8//8 6//6 5//5
f 8//8 5//5 7//7
f 6//6 2//2 1//1
f 6//6 1//1 5//5
f 1//1 3//3 7//7
f 1//1 7//7 5//5
f 8//8 4//4 10//10
f 8//8 10//10 11//11
f 9//9 12//12 21//21
f 9//9 21//21 22//22
f 6//6 8//8 11//11
f 6//6 11//11 12//12
f 4//4 2//2 9//9
f 4//4 9//9 10//10
f 2//2 6//6 12//12
f 2//2 12//12 9//9
f 16//16 15//15 14//14
f 16//16 14//14 13//13
f 10//10 14//14 19//19
f 10//10 19//19 17//17
f 12//12 11//11 15//15
f 12//12 15//15 16//16
f 10//10 9//9 13//13
f 10//10 13//13 14//14
f 18//18 17//17 19//19
f 18//18 19//19 20//20
f 11//11 10//10 17//17
f 11//11 17//17 18//18
f 15//15 11//11 18//18
f 15//15 18//18 20//20
f 14//14 15//15 20//20
f 14//14 20//20 19//19
f 22//22 21//21 23//23
f 22//22 23//23 24//24
f 12//12 16//16 23//23
f 12//12 23//23 21//21
f 13//13 9//9 22//22
f 13//13 22//22 24//24
f 16//16 13//13 24//24
f 16//16 24//24 23//23
# 44 faces, 0 coords texture

# End of File
