# Blender 3.4.1
# www.blender.org
mtllib bishop_cages_triangulated_deformed.mtl
o oriented_cage.002
v 17.691515 0.430930 10.000000
v 11.195934 -5.242848 6.999999
v 11.195935 -5.242846 -7.000001
v 17.691523 0.430942 -10.000000
v 0.116513 9.976573 10.000001
v -1.106568 1.439101 6.999999
v 0.116518 9.976585 -9.999999
v -1.106568 1.439103 -7.000001
v 10.066000 -19.254202 9.999997
v 10.066000 -19.254198 -10.000003
v -9.934030 -19.254202 9.999997
v -9.934030 -19.254198 -10.000003
v 22.080900 -26.404003 21.999996
v 22.080900 -26.403996 -22.000004
v -21.919100 -26.403904 21.999996
v -21.919100 -26.403896 -22.000004
v 23.553013 6.824616 12.000001
v 23.553017 6.824619 -11.999999
v 2.463009 18.279387 12.000002
v 2.463013 18.279390 -11.999998
v 35.111546 32.296043 -9.999983
v 17.536514 41.841702 -9.999984
v 35.111546 32.296043 10.000008
v 17.536512 41.841702 10.000007
v -21.985001 -43.310905 21.999992
v -21.985001 -43.310898 -22.000008
v 22.014999 -43.310905 21.999992
v 22.014999 -43.310898 -22.000008
vn 0.6579 -0.7531 -0.0000
vn -0.1660 -0.3057 0.9376
vn -0.1660 -0.3057 -0.9376
vn -0.9899 0.1418 -0.0000
vn 0.9968 -0.0804 -0.0000
vn 0.1085 0.1998 0.9738
vn -0.0000 0.1435 0.9897
vn 0.1085 0.1998 -0.9738
vn -0.0000 0.1435 -0.9897
vn -0.9198 0.3924 -0.0000
vn 0.5114 0.8594 -0.0000
vn -0.0000 0.8591 0.5119
vn -0.0000 0.8591 0.5118
vn -0.0000 0.8591 -0.5119
vn -0.0000 0.8591 -0.5118
vn -0.5123 0.8588 -0.0000
vn 0.7371 -0.6758 -0.0000
vn -0.1103 -0.2032 0.9729
vn -0.9623 0.2720 -0.0000
vn -0.1103 -0.2032 -0.9729
vn 0.0341 0.0628 -0.9974
vn 0.9106 -0.4132 -0.0000
vn 0.0341 0.0628 0.9974
vn -0.8424 0.5389 -0.0000
vn 0.4773 0.8788 -0.0000
vn -1.0000 0.0039 -0.0000
vn -0.0000 -0.0000 1.0000
vn 1.0000 -0.0039 -0.0000
vn -0.0000 -0.0000 -1.0000
vn -0.0000 -1.0000 -0.0000
s 0
usemtl Default_OBJ.007
f 1//1 2//1 3//1
f 1//1 3//1 4//1
f 2//2 1//2 5//2
f 2//2 5//2 6//2
f 7//3 4//3 3//3
f 7//3 3//3 8//3
f 7//4 8//4 6//4
f 7//4 6//4 5//4
f 2//5 9//5 10//5
f 2//5 10//5 3//5
f 9//6 2//6 6//6
f 9//7 6//7 11//7
f 8//8 3//8 10//8
f 8//9 10//9 12//9
f 8//10 12//10 11//10
f 8//10 11//10 6//10
f 9//11 13//11 14//11
f 9//11 14//11 10//11
f 13//12 9//12 11//12
f 13//13 11//13 15//13
f 12//14 10//14 14//14
f 12//15 14//15 16//15
f 12//16 16//16 15//16
f 12//16 15//16 11//16
f 17//17 1//17 4//17
f 17//17 4//17 18//17
f 19//18 5//18 1//18
f 19//18 1//18 17//18
f 20//19 7//19 5//19
f 20//19 5//19 19//19
f 18//20 4//20 7//20
f 18//20 7//20 20//20
f 21//21 18//21 20//21
f 21//21 20//21 22//21
f 23//22 17//22 18//22
f 23//22 18//22 21//22
f 24//23 19//23 17//23
f 24//23 17//23 23//23
f 22//24 20//24 19//24
f 22//24 19//24 24//24
f 21//25 22//25 24//25
f 21//25 24//25 23//25
f 25//26 15//26 16//26
f 25//26 16//26 26//26
f 27//27 13//27 15//27
f 27//27 15//27 25//27
f 28//28 14//28 13//28
f 28//28 13//28 27//28
f 26//29 16//29 14//29
f 26//29 14//29 28//29
f 25//30 26//30 28//30
f 25//30 28//30 27//30
